<?xml version="1.0" encoding="UTF-8"?>
<!DOCTYPE svg PUBLIC "-//W3C//DTD SVG 1.1//EN" "http://www.w3.org/Graphics/SVG/1.1/DTD/svg11.dtd">
<svg xmlns="http://www.w3.org/2000/svg" version="1.1" width="1920px" height="1080px" style="shape-rendering:geometricPrecision; text-rendering:geometricPrecision; image-rendering:optimizeQuality; fill-rule:evenodd; clip-rule:evenodd" xmlns:xlink="http://www.w3.org/1999/xlink">
<g><path style="opacity:1" fill="#fefefe" d="M -0.5,-0.5 C 639.5,-0.5 1279.5,-0.5 1919.5,-0.5C 1919.5,359.5 1919.5,719.5 1919.5,1079.5C 1279.5,1079.5 639.5,1079.5 -0.5,1079.5C -0.5,719.5 -0.5,359.5 -0.5,-0.5 Z"/></g>
<g><path style="opacity:1" fill="#d7e4ff" d="M 899.5,504.5 C 898.833,504.5 898.167,504.5 897.5,504.5C 896.282,503.839 894.949,503.172 893.5,502.5C 875.843,501.334 858.176,501.167 840.5,502C 837.97,502.891 835.637,504.058 833.5,505.5C 833.897,503.338 835.231,502.005 837.5,501.5C 856.825,500.334 876.158,500.167 895.5,501C 897.544,501.498 898.878,502.665 899.5,504.5 Z"/></g>
<g><path style="opacity:1" fill="#b0c9ff" d="M 897.5,504.5 C 879.283,502.432 860.95,501.932 842.5,503C 839.004,503.656 836.004,505.156 833.5,507.5C 833.5,506.833 833.5,506.167 833.5,505.5C 835.637,504.058 837.97,502.891 840.5,502C 858.176,501.167 875.843,501.334 893.5,502.5C 894.949,503.172 896.282,503.839 897.5,504.5 Z"/></g>
<g><path style="opacity:1" fill="#9abcfe" d="M 897.5,504.5 C 898.167,504.5 898.833,504.5 899.5,504.5C 902.835,507.842 904.835,511.842 905.5,516.5C 904.143,515.41 903.143,514.076 902.5,512.5C 902.64,510.876 901.973,509.71 900.5,509C 878.5,508.333 856.5,508.333 834.5,509C 833.027,509.71 832.36,510.876 832.5,512.5C 831.971,514.784 830.971,516.784 829.5,518.5C 829.424,514.616 830.09,510.95 831.5,507.5C 832.167,507.5 832.833,507.5 833.5,507.5C 836.004,505.156 839.004,503.656 842.5,503C 860.95,501.932 879.283,502.432 897.5,504.5 Z"/></g>
<g><path style="opacity:1" fill="#91b7fe" d="M 902.5,512.5 C 879.167,512.5 855.833,512.5 832.5,512.5C 832.36,510.876 833.027,509.71 834.5,509C 856.5,508.333 878.5,508.333 900.5,509C 901.973,509.71 902.64,510.876 902.5,512.5 Z"/></g>
<g><path style="opacity:1" fill="#88b3fd" d="M 832.5,512.5 C 855.833,512.5 879.167,512.5 902.5,512.5C 903.143,514.076 904.143,515.41 905.5,516.5C 905.833,516.5 906.167,516.5 906.5,516.5C 906.5,520.167 906.5,523.833 906.5,527.5C 906.829,540.011 906.495,552.345 905.5,564.5C 905.5,558.5 905.5,552.5 905.5,546.5C 905.5,542.833 905.5,539.167 905.5,535.5C 905.497,530.473 905.164,525.473 904.5,520.5C 879.826,519.55 855.159,519.55 830.5,520.5C 830.81,523.713 830.477,526.713 829.5,529.5C 829.5,529.167 829.5,528.833 829.5,528.5C 829.5,525.167 829.5,521.833 829.5,518.5C 830.971,516.784 831.971,514.784 832.5,512.5 Z"/></g>
<g><path style="opacity:1" fill="#d3e2fe" d="M 899.5,504.5 C 901.371,504.859 902.871,505.859 904,507.5C 905.903,510.171 906.736,513.171 906.5,516.5C 906.167,516.5 905.833,516.5 905.5,516.5C 904.835,511.842 902.835,507.842 899.5,504.5 Z"/></g>
<g><path style="opacity:1" fill="#77aafc" d="M 905.5,535.5 C 904.549,534.081 904.216,532.415 904.5,530.5C 901.018,530.172 897.685,530.172 894.5,530.5C 894.784,528.585 894.451,526.919 893.5,525.5C 892.081,524.549 890.415,524.216 888.5,524.5C 886.406,525.242 884.239,525.909 882,526.5C 880.833,526.333 879.667,526.167 878.5,526C 879.833,525.333 879.833,524.667 878.5,524C 866.796,521.383 855.13,520.883 843.5,522.5C 843.5,523.167 843.5,523.833 843.5,524.5C 842.508,524.328 841.842,524.662 841.5,525.5C 840.662,525.842 840.328,526.508 840.5,527.5C 837.609,529.803 834.276,530.803 830.5,530.5C 830.813,534.042 830.479,537.375 829.5,540.5C 829.5,536.833 829.5,533.167 829.5,529.5C 830.477,526.713 830.81,523.713 830.5,520.5C 855.159,519.55 879.826,519.55 904.5,520.5C 905.164,525.473 905.497,530.473 905.5,535.5 Z"/></g>
<g><path style="opacity:1" fill="#cadefe" d="M 831.5,507.5 C 830.09,510.95 829.424,514.616 829.5,518.5C 829.5,521.833 829.5,525.167 829.5,528.5C 829.167,528.5 828.833,528.5 828.5,528.5C 828.17,522.132 828.504,515.798 829.5,509.5C 830.182,508.757 830.849,508.091 831.5,507.5 Z"/></g>
<g><path style="opacity:1" fill="#6f9dea" d="M 843.5,522.5 C 855.13,520.883 866.796,521.383 878.5,524C 879.833,524.667 879.833,525.333 878.5,526C 879.667,526.167 880.833,526.333 882,526.5C 884.239,525.909 886.406,525.242 888.5,524.5C 886.343,528.375 883.343,530.375 879.5,530.5C 879.5,530.167 879.5,529.833 879.5,529.5C 878.493,527.478 876.826,526.145 874.5,525.5C 874.158,524.662 873.492,524.328 872.5,524.5C 863.225,522.527 853.558,521.86 843.5,522.5 Z"/></g>
<g><path style="opacity:1" fill="#526eae" d="M 843.5,522.5 C 853.558,521.86 863.225,522.527 872.5,524.5C 862.833,524.5 853.167,524.5 843.5,524.5C 843.5,523.833 843.5,523.167 843.5,522.5 Z"/></g>
<g><path style="opacity:1" fill="#f2f5fc" d="M 874.5,527.5 C 875.492,527.328 876.158,527.662 876.5,528.5C 876.5,530.167 876.5,531.833 876.5,533.5C 865.833,533.5 855.167,533.5 844.5,533.5C 844.5,531.167 844.5,528.833 844.5,526.5C 854.582,526.193 864.582,526.526 874.5,527.5 Z"/></g>
<g><path style="opacity:1" fill="#6d86bc" d="M 874.5,525.5 C 876.826,526.145 878.493,527.478 879.5,529.5C 878.833,529.5 878.167,529.5 877.5,529.5C 877.5,528.833 877.167,528.5 876.5,528.5C 876.158,527.662 875.492,527.328 874.5,527.5C 874.5,526.833 874.5,526.167 874.5,525.5 Z"/></g>
<g><path style="opacity:1" fill="#839cd0" d="M 888.5,524.5 C 890.415,524.216 892.081,524.549 893.5,525.5C 891.901,525.232 890.568,525.566 889.5,526.5C 887.861,527.473 886.527,528.806 885.5,530.5C 883.938,530.733 882.605,531.4 881.5,532.5C 880.833,532.5 880.167,532.5 879.5,532.5C 879.5,531.833 879.5,531.167 879.5,530.5C 883.343,530.375 886.343,528.375 888.5,524.5 Z"/></g>
<g><path style="opacity:1" fill="#e7ecf8" d="M 889.5,526.5 C 890.5,526.5 891.5,526.5 892.5,526.5C 892.915,531.206 892.248,535.706 890.5,540C 884.506,541.841 882.173,539.674 883.5,533.5C 884.167,532.5 884.833,531.5 885.5,530.5C 886.527,528.806 887.861,527.473 889.5,526.5 Z"/></g>
<g><path style="opacity:1" fill="#e8edf9" d="M 874.5,525.5 C 874.5,526.167 874.5,526.833 874.5,527.5C 864.582,526.526 854.582,526.193 844.5,526.5C 844.5,528.833 844.5,531.167 844.5,533.5C 855.167,533.5 865.833,533.5 876.5,533.5C 876.5,534.5 876.5,535.5 876.5,536.5C 865.245,537.109 854.245,536.442 843.5,534.5C 843.5,531.5 843.5,528.5 843.5,525.5C 853.833,525.5 864.167,525.5 874.5,525.5 Z"/></g>
<g><path style="opacity:1" fill="#5f9df8" d="M 905.5,535.5 C 905.5,539.167 905.5,542.833 905.5,546.5C 904.532,544.393 904.198,542.059 904.5,539.5C 902.142,538.822 899.975,538.488 898,538.5C 896.641,539.365 895.474,540.365 894.5,541.5C 894.5,537.833 894.5,534.167 894.5,530.5C 897.685,530.172 901.018,530.172 904.5,530.5C 904.216,532.415 904.549,534.081 905.5,535.5 Z"/></g>
<g><path style="opacity:1" fill="#e1edfe" d="M 906.5,527.5 C 907.66,540.66 907.827,553.994 907,567.5C 905.012,574.327 900.512,577.993 893.5,578.5C 893.5,578.167 893.5,577.833 893.5,577.5C 895.027,577.573 896.027,576.906 896.5,575.5C 896.833,575.5 897.167,575.5 897.5,575.5C 898.167,575.5 898.833,575.5 899.5,575.5C 901.543,574.421 902.876,572.754 903.5,570.5C 904.73,568.703 905.396,566.703 905.5,564.5C 906.495,552.345 906.829,540.011 906.5,527.5 Z"/></g>
<g><path style="opacity:1" fill="#a7b1cf" d="M 885.5,530.5 C 884.833,531.5 884.167,532.5 883.5,533.5C 882.521,536.625 882.187,539.958 882.5,543.5C 882.167,543.5 881.833,543.5 881.5,543.5C 881.5,539.833 881.5,536.167 881.5,532.5C 882.605,531.4 883.938,530.733 885.5,530.5 Z"/></g>
<g><path style="opacity:1" fill="#7884ad" d="M 879.5,532.5 C 880.167,532.5 880.833,532.5 881.5,532.5C 881.5,536.167 881.5,539.833 881.5,543.5C 880.833,543.5 880.167,543.5 879.5,543.5C 879.5,539.833 879.5,536.167 879.5,532.5 Z"/></g>
<g><path style="opacity:1" fill="#7ea0de" d="M 841.5,525.5 C 841.5,528.5 841.5,531.5 841.5,534.5C 841.334,538.514 841.501,542.514 842,546.5C 842.417,547.756 843.25,548.423 844.5,548.5C 844.557,549.609 844.89,550.609 845.5,551.5C 844.167,550.833 842.833,550.167 841.5,549.5C 841.5,548.833 841.167,548.5 840.5,548.5C 840.5,544.833 840.5,541.167 840.5,537.5C 840.5,534.167 840.5,530.833 840.5,527.5C 840.328,526.508 840.662,525.842 841.5,525.5 Z"/></g>
<g><path style="opacity:1" fill="#b0bee2" d="M 841.5,534.5 C 842.333,539.082 843.333,543.748 844.5,548.5C 843.25,548.423 842.417,547.756 842,546.5C 841.501,542.514 841.334,538.514 841.5,534.5 Z"/></g>
<g><path style="opacity:1" fill="#ccd6f0" d="M 843.5,524.5 C 853.167,524.5 862.833,524.5 872.5,524.5C 873.492,524.328 874.158,524.662 874.5,525.5C 864.167,525.5 853.833,525.5 843.5,525.5C 843.5,528.5 843.5,531.5 843.5,534.5C 844.159,537.455 844.492,540.455 844.5,543.5C 853.506,543.666 862.506,543.5 871.5,543C 875.251,542.418 876.918,540.251 876.5,536.5C 876.5,535.5 876.5,534.5 876.5,533.5C 876.5,531.833 876.5,530.167 876.5,528.5C 877.167,528.5 877.5,528.833 877.5,529.5C 878.205,534.843 877.872,540.176 876.5,545.5C 875.522,545.811 874.855,546.478 874.5,547.5C 864.522,548.499 854.522,548.832 844.5,548.5C 843.333,543.748 842.333,539.082 841.5,534.5C 841.5,531.5 841.5,528.5 841.5,525.5C 841.842,524.662 842.508,524.328 843.5,524.5 Z"/></g>
<g><path style="opacity:1" fill="#dfe7fa" d="M 843.5,534.5 C 854.245,536.442 865.245,537.109 876.5,536.5C 876.918,540.251 875.251,542.418 871.5,543C 862.506,543.5 853.506,543.666 844.5,543.5C 844.492,540.455 844.159,537.455 843.5,534.5 Z"/></g>
<g><path style="opacity:1" fill="#c7d5f5" d="M 876.5,545.5 C 876.5,547.833 876.5,550.167 876.5,552.5C 866.115,552.786 855.782,552.452 845.5,551.5C 844.89,550.609 844.557,549.609 844.5,548.5C 854.522,548.832 864.522,548.499 874.5,547.5C 874.855,546.478 875.522,545.811 876.5,545.5 Z"/></g>
<g><path style="opacity:1" fill="#d0daf3" d="M 889.5,526.5 C 890.568,525.566 891.901,525.232 893.5,525.5C 893.5,529.5 893.5,533.5 893.5,537.5C 892.26,540.647 891.26,543.98 890.5,547.5C 888.955,548.452 887.288,548.785 885.5,548.5C 883.273,547.599 882.273,545.933 882.5,543.5C 882.187,539.958 882.521,536.625 883.5,533.5C 882.173,539.674 884.506,541.841 890.5,540C 892.248,535.706 892.915,531.206 892.5,526.5C 891.5,526.5 890.5,526.5 889.5,526.5 Z"/></g>
<g><path style="opacity:1" fill="#6979aa" d="M 881.5,543.5 C 881.833,543.5 882.167,543.5 882.5,543.5C 882.273,545.933 883.273,547.599 885.5,548.5C 885.5,548.833 885.5,549.167 885.5,549.5C 882.224,548.878 880.891,546.878 881.5,543.5 Z"/></g>
<g><path style="opacity:1" fill="#4b94f8" d="M 905.5,546.5 C 905.5,552.5 905.5,558.5 905.5,564.5C 905.396,566.703 904.73,568.703 903.5,570.5C 902.222,570.782 901.222,571.449 900.5,572.5C 900.831,570.678 901.498,569.011 902.5,567.5C 903.29,566.391 903.79,565.058 904,563.5C 904.499,558.845 904.666,554.179 904.5,549.5C 902.833,549.5 901.167,549.5 899.5,549.5C 899.239,552.915 898.072,552.915 896,549.5C 895.79,551.058 895.29,552.391 894.5,553.5C 894.167,553.5 893.833,553.5 893.5,553.5C 894.36,549.566 894.693,545.566 894.5,541.5C 895.474,540.365 896.641,539.365 898,538.5C 899.975,538.488 902.142,538.822 904.5,539.5C 904.198,542.059 904.532,544.393 905.5,546.5 Z"/></g>
<g><path style="opacity:1" fill="#b8c6e9" d="M 893.5,537.5 C 893.563,542.203 893.229,546.87 892.5,551.5C 890.784,551.371 889.117,551.038 887.5,550.5C 886.833,550.167 886.167,549.833 885.5,549.5C 885.5,549.167 885.5,548.833 885.5,548.5C 887.288,548.785 888.955,548.452 890.5,547.5C 891.26,543.98 892.26,540.647 893.5,537.5 Z"/></g>
<g><path style="opacity:1" fill="#345197" d="M 879.5,543.5 C 880.167,543.5 880.833,543.5 881.5,543.5C 880.891,546.878 882.224,548.878 885.5,549.5C 886.167,549.833 886.833,550.167 887.5,550.5C 888.687,552.975 890.687,553.975 893.5,553.5C 893.03,554.693 892.03,555.36 890.5,555.5C 889.5,555.333 888.5,555.167 887.5,555C 884.645,552.969 881.978,550.803 879.5,548.5C 879.5,546.833 879.5,545.167 879.5,543.5 Z"/></g>
<g><path style="opacity:1" fill="#89a3da" d="M 893.5,525.5 C 894.451,526.919 894.784,528.585 894.5,530.5C 894.5,534.167 894.5,537.833 894.5,541.5C 894.693,545.566 894.36,549.566 893.5,553.5C 890.687,553.975 888.687,552.975 887.5,550.5C 889.117,551.038 890.784,551.371 892.5,551.5C 893.229,546.87 893.563,542.203 893.5,537.5C 893.5,533.5 893.5,529.5 893.5,525.5 Z"/></g>
<g><path style="opacity:1" fill="#418ef7" d="M 840.5,537.5 C 840.5,541.167 840.5,544.833 840.5,548.5C 840.5,551.167 840.5,553.833 840.5,556.5C 837.258,555.788 833.925,555.788 830.5,556.5C 830.5,552.167 830.5,547.833 830.5,543.5C 835.472,544.022 838.805,542.022 840.5,537.5 Z"/></g>
<g><path style="opacity:1" fill="#8999c6" d="M 877.5,529.5 C 878.167,529.5 878.833,529.5 879.5,529.5C 879.5,529.833 879.5,530.167 879.5,530.5C 879.5,531.167 879.5,531.833 879.5,532.5C 879.5,536.167 879.5,539.833 879.5,543.5C 879.5,545.167 879.5,546.833 879.5,548.5C 879.296,550.685 878.63,552.685 877.5,554.5C 867.833,554.5 858.167,554.5 848.5,554.5C 846.856,554.19 845.856,553.19 845.5,551.5C 855.782,552.452 866.115,552.786 876.5,552.5C 876.5,550.167 876.5,547.833 876.5,545.5C 877.872,540.176 878.205,534.843 877.5,529.5 Z"/></g>
<g><path style="opacity:1" fill="#2e65c0" d="M 879.5,548.5 C 881.978,550.803 884.645,552.969 887.5,555C 888.5,555.167 889.5,555.333 890.5,555.5C 892.03,555.36 893.03,554.693 893.5,553.5C 893.833,553.5 894.167,553.5 894.5,553.5C 894.5,554.833 894.5,556.167 894.5,557.5C 890.181,558.201 886.514,557.034 883.5,554C 882.207,553.51 880.873,553.343 879.5,553.5C 879.727,555.933 878.727,557.599 876.5,558.5C 876.5,557.833 876.5,557.167 876.5,556.5C 878.105,555.994 878.439,555.327 877.5,554.5C 878.63,552.685 879.296,550.685 879.5,548.5 Z"/></g>
<g><path style="opacity:1" fill="#599cfa" d="M 840.5,527.5 C 840.5,530.833 840.5,534.167 840.5,537.5C 838.805,542.022 835.472,544.022 830.5,543.5C 830.5,547.833 830.5,552.167 830.5,556.5C 830.458,560.009 831.124,563.342 832.5,566.5C 833.167,568.5 833.833,570.5 834.5,572.5C 832.468,571.439 831.134,569.772 830.5,567.5C 829.502,558.525 829.168,549.525 829.5,540.5C 830.479,537.375 830.813,534.042 830.5,530.5C 834.276,530.803 837.609,529.803 840.5,527.5 Z"/></g>
<g><path style="opacity:1" fill="#1e428b" d="M 841.5,549.5 C 842.833,550.167 844.167,550.833 845.5,551.5C 845.856,553.19 846.856,554.19 848.5,554.5C 857.44,556.472 866.773,557.139 876.5,556.5C 876.5,557.167 876.5,557.833 876.5,558.5C 866.781,558.782 857.114,558.449 847.5,557.5C 844.045,556.031 842.045,553.364 841.5,549.5 Z"/></g>
<g><path style="opacity:1" fill="#2c79e4" d="M 840.5,548.5 C 841.167,548.5 841.5,548.833 841.5,549.5C 842.045,553.364 844.045,556.031 847.5,557.5C 847.577,558.75 848.244,559.583 849.5,560C 854,560.167 858.5,560.333 863,560.5C 867.886,560.493 872.386,559.826 876.5,558.5C 878.727,557.599 879.727,555.933 879.5,553.5C 880.873,553.343 882.207,553.51 883.5,554C 886.514,557.034 890.181,558.201 894.5,557.5C 894.845,560.488 893.512,561.821 890.5,561.5C 887.724,561.195 885.224,560.195 883,558.5C 880.635,559.289 878.468,560.456 876.5,562C 866.325,562.437 856.325,562.603 846.5,562.5C 843.455,561.456 841.455,559.456 840.5,556.5C 840.5,553.833 840.5,551.167 840.5,548.5 Z"/></g>
<g><path style="opacity:1" fill="#1c336d" d="M 848.5,554.5 C 858.167,554.5 867.833,554.5 877.5,554.5C 878.439,555.327 878.105,555.994 876.5,556.5C 866.773,557.139 857.44,556.472 848.5,554.5 Z"/></g>
<g><path style="opacity:1" fill="#2c85f7" d="M 902.5,567.5 C 889.526,567.022 876.359,566.356 863,565.5C 852.83,565.823 842.664,566.156 832.5,566.5C 831.124,563.342 830.458,560.009 830.5,556.5C 833.925,555.788 837.258,555.788 840.5,556.5C 841.455,559.456 843.455,561.456 846.5,562.5C 856.325,562.603 866.325,562.437 876.5,562C 878.468,560.456 880.635,559.289 883,558.5C 885.224,560.195 887.724,561.195 890.5,561.5C 893.512,561.821 894.845,560.488 894.5,557.5C 894.5,556.167 894.5,554.833 894.5,553.5C 895.29,552.391 895.79,551.058 896,549.5C 898.072,552.915 899.239,552.915 899.5,549.5C 901.167,549.5 902.833,549.5 904.5,549.5C 904.666,554.179 904.499,558.845 904,563.5C 903.79,565.058 903.29,566.391 902.5,567.5 Z"/></g>
<g><path style="opacity:1" fill="#2565c6" d="M 847.5,557.5 C 857.114,558.449 866.781,558.782 876.5,558.5C 872.386,559.826 867.886,560.493 863,560.5C 858.5,560.333 854,560.167 849.5,560C 848.244,559.583 847.577,558.75 847.5,557.5 Z"/></g>
<g><path style="opacity:1" fill="#1c7ef9" d="M 902.5,567.5 C 901.498,569.011 900.831,570.678 900.5,572.5C 899.222,572.782 898.222,573.449 897.5,574.5C 879.578,576.496 861.578,576.996 843.5,576C 840.461,574.895 837.461,573.728 834.5,572.5C 833.833,570.5 833.167,568.5 832.5,566.5C 842.664,566.156 852.83,565.823 863,565.5C 876.359,566.356 889.526,567.022 902.5,567.5 Z"/></g>
<g><path style="opacity:1" fill="#a0c8fc" d="M 828.5,528.5 C 828.833,528.5 829.167,528.5 829.5,528.5C 829.5,528.833 829.5,529.167 829.5,529.5C 829.5,533.167 829.5,536.833 829.5,540.5C 829.168,549.525 829.502,558.525 830.5,567.5C 831.134,569.772 832.468,571.439 834.5,572.5C 836.209,574.813 838.543,576.313 841.5,577C 858.83,577.5 876.163,577.667 893.5,577.5C 893.5,577.833 893.5,578.167 893.5,578.5C 875.155,578.833 856.821,578.5 838.5,577.5C 834.886,575.555 831.886,572.888 829.5,569.5C 828.501,555.85 828.167,542.183 828.5,528.5 Z"/></g>
<g><path style="opacity:1" fill="#a2c9fc" d="M 903.5,570.5 C 902.876,572.754 901.543,574.421 899.5,575.5C 899.557,574.391 899.89,573.391 900.5,572.5C 901.222,571.449 902.222,570.782 903.5,570.5 Z"/></g>
<g><path style="opacity:1" fill="#71adfb" d="M 900.5,572.5 C 899.89,573.391 899.557,574.391 899.5,575.5C 898.833,575.5 898.167,575.5 897.5,575.5C 897.5,575.167 897.5,574.833 897.5,574.5C 898.222,573.449 899.222,572.782 900.5,572.5 Z"/></g>
<g><path style="opacity:1" fill="#318af9" d="M 834.5,572.5 C 837.461,573.728 840.461,574.895 843.5,576C 861.578,576.996 879.578,576.496 897.5,574.5C 897.5,574.833 897.5,575.167 897.5,575.5C 897.167,575.5 896.833,575.5 896.5,575.5C 894.973,575.427 893.973,576.094 893.5,577.5C 876.163,577.667 858.83,577.5 841.5,577C 838.543,576.313 836.209,574.813 834.5,572.5 Z"/></g>
<g><path style="opacity:1" fill="#7eb5fb" d="M 896.5,575.5 C 896.027,576.906 895.027,577.573 893.5,577.5C 893.973,576.094 894.973,575.427 896.5,575.5 Z"/></g>
</svg>
